{
	"asset":{
		"generator":"Khronos glTF Blender I/O v3.6.27",
		"version":"2.0"
	},
	"scene":0,
	"scenes":[
		{
			"name":"Scene",
			"nodes":[
				0
			]
		}
	],
	"nodes":[
		{
			"mesh":0,
			"name":"Cube"
		}
	],
	"materials":[
		{
			"doubleSided":true,
			"name":"Material",
			"pbrMetallicRoughness":{
				"baseColorFactor":[
					0.800000011920929,
					0.800000011920929,
					0.800000011920929,
					1
				],
				"metallicFactor":0,
				"roughnessFactor":0.5
			}
		}
	],
	"meshes":[
		{
			"name":"Cube",
			"primitives":[
				{
					"attributes":{
						"_DISPLACE":0,
						"POSITION":1,
						"NORMAL":2,
						"TEXCOORD_0":3
					},
					"indices":4,
					"material":0
				}
			]
		}
	],
	"accessors":[
		{
			"bufferView":0,
			"componentType":5126,
			"count":6534,
			"type":"SCALAR"
		},
		{
			"bufferView":1,
			"componentType":5126,
			"count":6534,
			"max":[
				1,
				1,
				1
			],
			"min":[
				-1,
				-1,
				-1
			],
			"type":"VEC3"
		},
		{
			"bufferView":2,
			"componentType":5126,
			"count":6534,
			"type":"VEC3"
		},
		{
			"bufferView":3,
			"componentType":5126,
			"count":6534,
			"type":"VEC2"
		},
		{
			"bufferView":4,
			"componentType":5123,
			"count":36864,
			"type":"SCALAR"
		}
	],
	"bufferViews":[
		{
			"buffer":0,
			"byteLength":26136,
			"byteOffset":0,
			"target":34962
		},
		{
			"buffer":0,
			"byteLength":78408,
			"byteOffset":26136,
			"target":34962
		},
		{
			"buffer":0,
			"byteLength":78408,
			"byteOffset":104544,
			"target":34962
		},
		{
			"buffer":0,
			"byteLength":52272,
			"byteOffset":182952,
			"target":34962
		},
		{
			"buffer":0,
			"byteLength":73728,
			"byteOffset":235224,
			"target":34963
		}
	],
	"buffers":[
		{
			"byteLength":308952,
			"uri":"data:application/octet-stream;base64,"
		}
	]
}
